<svg width="17" height="17" viewBox="0 0 17 17" fill="none" xmlns="http://www.w3.org/2000/svg">
<path id="Vector" d="M8.37402 0.326172C3.80565 0.326172 0.10547 4.02635 0.10547 8.59472C0.104475 10.3304 0.650036 12.0224 1.66476 13.4305C2.67949 14.8387 4.11186 15.8916 5.75868 16.4399C6.1721 16.5119 6.32755 16.2638 6.32755 16.0463C6.32755 15.8504 6.3168 15.1996 6.3168 14.5067C4.23974 14.8896 3.70229 14.0007 3.53692 13.5352C3.44348 13.297 3.04081 12.5636 2.68939 12.3668C2.39999 12.2122 1.98657 11.8294 2.67864 11.8195C3.3302 11.8087 3.7949 12.4189 3.95035 12.667C4.69451 13.9172 5.88271 13.5658 6.35815 13.3491C6.43091 12.8117 6.64755 12.4503 6.88568 12.2436C5.04593 12.0369 3.12349 11.3233 3.12349 8.16062C3.12349 7.261 3.44348 6.51766 3.97102 5.93804C3.88833 5.73132 3.59893 4.8838 4.0537 3.74687C4.0537 3.74687 4.74578 3.53023 6.32755 4.59522C7.00067 4.4084 7.69614 4.31438 8.39469 4.31575C9.09752 4.31575 9.80034 4.40835 10.4618 4.5944C12.0436 3.51949 12.7357 3.7477 12.7357 3.7477C13.1904 4.88462 12.901 5.73215 12.8184 5.93886C13.3451 6.51766 13.6659 7.25108 13.6659 8.16062C13.6659 11.3341 11.7335 12.0369 9.89295 12.2436C10.1931 12.5016 10.4519 12.9977 10.4519 13.7733C10.4519 14.8788 10.4412 15.7677 10.4412 16.0472C10.4412 16.2638 10.5966 16.5218 11.01 16.4391C12.6512 15.8848 14.0773 14.8298 15.0875 13.4227C16.0978 12.0155 16.6413 10.327 16.6417 8.59472C16.6417 4.02635 12.9416 0.326172 8.37319 0.326172H8.37402Z" fill="#0B0909"/>
</svg>
