<svg width="17" height="16" viewBox="0 0 17 16" fill="none" xmlns="http://www.w3.org/2000/svg">
<path id="Vector" d="M3.8582 1.80688C3.85798 2.24547 3.68354 2.66601 3.37326 2.97599C3.06297 3.28596 2.64226 3.45998 2.20366 3.45976C1.76507 3.45954 1.34453 3.2851 1.03456 2.97482C0.724581 2.66453 0.550562 2.24382 0.550781 1.80523C0.551001 1.36664 0.725441 0.946095 1.03573 0.63612C1.34601 0.326144 1.76673 0.152125 2.20532 0.152344C2.64391 0.152563 3.06445 0.327003 3.37443 0.637289C3.6844 0.947575 3.85842 1.36829 3.8582 1.80688ZM3.90781 4.68434H0.600393V15.0366H3.90781V4.68434ZM9.13354 4.68434H5.84265V15.0366H9.10046V9.60412C9.10046 6.57783 13.0446 6.2967 13.0446 9.60412V15.0366H16.3106V8.4796C16.3106 3.3779 10.473 3.56808 9.10046 6.07345L9.13354 4.68434Z" fill="#0077B5"/>
</svg>
